<?xml version="1.0" encoding="UTF-8" standalone="no"?>
<svg
   width="16px"
   height="16px"
   viewBox="0 0 16 16"
   version="1.1"
   id="svg5"
   sodipodi:docname="hblock-acquiring-symbolic.svg"
   xml:space="preserve"
   inkscape:version="1.3.2 (091e20ef0f, 2023-11-25)"
   xmlns:inkscape="http://www.inkscape.org/namespaces/inkscape"
   xmlns:sodipodi="http://sodipodi.sourceforge.net/DTD/sodipodi-0.dtd"
   xmlns="http://www.w3.org/2000/svg"
   xmlns:svg="http://www.w3.org/2000/svg"><defs
     id="defs5" /><sodipodi:namedview
     id="namedview5"
     pagecolor="#ffffff"
     bordercolor="#666666"
     borderopacity="1.0"
     inkscape:showpageshadow="2"
     inkscape:pageopacity="0.0"
     inkscape:pagecheckerboard="0"
     inkscape:deskcolor="#d1d1d1"
     inkscape:zoom="9.2187502"
     inkscape:cx="17.084745"
     inkscape:cy="1.5728813"
     inkscape:window-width="1503"
     inkscape:window-height="933"
     inkscape:window-x="0"
     inkscape:window-y="0"
     inkscape:window-maximized="1"
     inkscape:current-layer="svg5" /><path
     id="path6-3-5"
     style="opacity:0.35;stroke-width:1;stroke-dasharray:none"
     d="m 8.0000153,-5.0766311e-5 c -0.01191,0 -0.390073,0.443497996311 -0.841797,0.984374996311 -1.166728,1.39699797 -1.370382,1.57213797 -1.917969,1.65820297 -0.440483,0.06923 -1.0604739,0.02521 -2.6113279,-0.185547 -0.4563301,-0.06202 -0.8461861,-0.113281 -0.8652341,-0.113281 -0.03443,0 -0.01662,1.603601 0.02344,2.765625 h 1.7910161 c -0.003,-0.110655 -0.0058,-0.219826 -0.0059,-0.318359 v -0.388672 l 0.402343,0.0293 c 0.220859,0.0151 0.6254449,0.02542 0.9003909,0.02344 l 0.5,-0.0039 v 0.658207 h 1.802734 v -0.40625 -1.044922 l 0.22461,-0.222656 c 0.123008,-0.122813 0.307799,-0.318373 0.410194,-0.435563 l 0.185547,-0.212891 0.185547,0.212891 c 0.502037,0.576853 0.932007,0.928946 1.40039,1.148438 0.6498467,0.304527 1.2740017,0.372028 2.5566407,0.273437 l 0.283203,-0.02344 v 0.363281 c 0,0.111267 -0.0051,0.230576 -0.0078,0.347656 H 14.2012 c 0.0334,-1.158802 0.06555,-2.735232 0.04883,-2.751953 -0.0089,-0.0089 -0.396863,0.03471 -0.863282,0.09766 -1.57533,0.212592 -2.190199,0.256759 -2.63086,0.1875 C 10.206789,2.5562282 9.9964513,2.3750012 8.8398593,0.98432523 8.3900243,0.44344723 8.0119273,-5.0766311e-5 8.0000153,-5.0766311e-5 Z M 2.8515784,11.078074 c 0.476509,1.058428 1.133392,1.905845 2.0156239,2.664063 0.473247,0.406722 0.865308,0.69872 2.09375,1.55664 0.560953,0.391759 1.035978,0.707772 1.054688,0.701172 0.05548,-0.01958 1.9998567,-1.384119 2.3964837,-1.681641 0.788227,-0.591272 1.396272,-1.166754 1.851563,-1.755859 0.341846,-0.442319 0.631392,-0.932841 0.876953,-1.484375 h -2.025391 c -0.508783,0.781371 -1.2535607,1.452829 -2.4667967,2.302734 -0.314095,0.220032 -0.593912,0.409492 -0.621093,0.419922 -0.05929,0.02275 -1.035855,-0.651253 -1.644532,-1.134765 -0.640912,-0.50912 -1.122825,-1.011272 -1.496093,-1.587891 z" /><path
     style="fill:#2e3335;fill-opacity:1;fill-rule:nonzero;stroke:none"
     d="M 2.9999999,6 C 1.8945308,6 0.99999985,6.894531 0.99999985,8 c 0,1.105469 0.89453105,2 2.00000005,2 1.105469,0 1.9999999,-0.894531 1.9999999,-2 0,-1.105469 -0.8945309,-2 -1.9999999,-2 z m 4.9999999,0 c -1.105469,0 -2,0.894531 -2,2 0,1.105469 0.894531,2 2,2 1.1054691,0 2.0000001,-0.894531 2.0000001,-2 0,-1.105469 -0.894531,-2 -2.0000001,-2 z M 13,6 c -1.105469,0 -2,0.894531 -2,2 0,1.105469 0.894531,2 2,2 1.105469,0 2,-0.894531 2,-2 0,-1.105469 -0.894531,-2 -2,-2 z m 0,0"
     id="path1-6-3" /></svg>
