<?xml version="1.0" encoding="UTF-8" standalone="no"?>
<svg
   width="16px"
   height="16px"
   viewBox="0 0 16 16"
   version="1.1"
   id="svg5"
   sodipodi:docname="hblock-logo-symbolic.svg"
   xml:space="preserve"
   inkscape:version="1.3.2 (091e20ef0f, 2023-11-25)"
   xmlns:inkscape="http://www.inkscape.org/namespaces/inkscape"
   xmlns:sodipodi="http://sodipodi.sourceforge.net/DTD/sodipodi-0.dtd"
   xmlns="http://www.w3.org/2000/svg"
   xmlns:svg="http://www.w3.org/2000/svg"><defs
     id="defs5" /><sodipodi:namedview
     id="namedview5"
     pagecolor="#ffffff"
     bordercolor="#666666"
     borderopacity="1.0"
     inkscape:showpageshadow="2"
     inkscape:pageopacity="0.0"
     inkscape:pagecheckerboard="0"
     inkscape:deskcolor="#d1d1d1"
     inkscape:zoom="26.074563"
     inkscape:cx="5.7910847"
     inkscape:cy="8.8783848"
     inkscape:window-width="1503"
     inkscape:window-height="933"
     inkscape:window-x="0"
     inkscape:window-y="0"
     inkscape:window-maximized="1"
     inkscape:current-layer="svg5" /><path
     style="stroke-width:1;stroke-dasharray:none"
     d="M 6.9617389,15.299613 C 5.7332948,14.441692 5.3402304,14.149579 4.8669835,13.742856 2.8392054,12.000122 2.0044431,9.7861453 1.8050253,5.6218566 1.7514123,4.5022919 1.7243488,2.3438063 1.7639259,2.3438063 c 0.019048,0 0.4079981,0.05074 0.8643287,0.1127553 1.550855,0.2107616 2.1715062,0.2548729 2.61199,0.1856418 C 5.7878316,2.556138 5.9909555,2.3804143 7.1576847,0.98341506 7.6094093,0.44253707 7.9887494,0 8.0006629,0 c 0.011912,0 0.3897088,0.44253707 0.839544,0.98341506 1.156593,1.39067724 1.3665551,1.57248744 1.9156411,1.65878834 0.440661,0.069259 1.055001,0.025582 2.630332,-0.1870093 0.466419,-0.062943 0.855287,-0.1071893 0.864152,-0.098325 0.02425,0.024252 -0.05368,3.3791268 -0.09032,3.8878169 -0.213605,2.9660773 -0.789761,4.884879 -1.896936,6.317465 -0.455291,0.589106 -1.062538,1.165519 -1.850765,1.756792 -0.396628,0.297522 -2.34116,1.661377 -2.3966421,1.680955 -0.01871,0.0066 -0.4929779,-0.308526 -1.0539315,-0.700285 z M 8.6478766,13.381139 C 10.663515,11.969128 11.39162,11.049834 11.879963,9.3003599 12.183966,8.2112806 12.423413,6.2112522 12.423413,4.7610911 V 4.3993062 l -0.282335,0.021703 C 10.858438,4.5196002 10.233573,4.4530099 9.5837261,4.1484825 9.1153426,3.9289905 8.685521,3.5762707 8.183483,2.9994171 L 7.9980449,2.7863438 7.8118723,2.9994171 C 7.7094772,3.1166076 7.5250869,3.3129607 7.4021162,3.4357577 l -0.223584,0.2232667 v 1.0437695 1.0437694 l 0.1557074,-0.051707 c 0.1122822,-0.037285 0.29284,-0.05239 0.6474148,-0.054158 0.4286137,-0.00214 0.5231066,0.00741 0.736406,0.074387 0.7821486,0.2456028 1.3810406,0.7805018 1.6865346,1.5063249 0.18082,0.4296087 0.189958,0.5142373 0.206904,1.9161561 l 0.01575,1.3030247 H 9.7242332 8.8212164 L 8.8111918,9.2195176 C 8.8015108,8.0400632 8.7987519,7.9939748 8.7302842,7.867322 8.5714245,7.5734601 8.3254208,7.4247854 7.9980454,7.4247854 c -0.3273759,0 -0.573379,0.1486747 -0.7322387,0.4425366 -0.068468,0.1266528 -0.071226,0.1727412 -0.080908,1.3521956 L 7.1748744,10.440591 H 6.2752394 5.3756044 V 7.4457345 4.450878 L 4.8757019,4.454518 C 4.6007553,4.4565053 4.1950967,4.4457935 3.9742383,4.4306893 L 3.5726767,4.4032299 3.572841,4.7912765 c 3.864e-4,0.9865619 0.1540127,2.6514755 0.3301841,3.5783593 0.3855566,2.0285182 1.0294985,3.1439992 2.4802183,4.2964032 0.6086769,0.483513 1.5848541,1.156879 1.6441428,1.134127 0.027181,-0.01043 0.3064069,-0.198991 0.6205023,-0.419023 z"
     id="path6" /></svg>
